<svg width="30" height="30" viewBox="0 0 30 30" fill="none" xmlns="http://www.w3.org/2000/svg">
    <rect x="3" y="14" width="24" height="13" rx="3" stroke="#47474A" stroke-width="2" stroke-linecap="round" stroke-linejoin="round"/>
    <path d="M11 22C11 20.3431 9.20914 19 7 19C4.79086 19 3 20.3431 3 22" stroke="#47474A" stroke-width="2" stroke-linecap="round" stroke-linejoin="round"/>
    <path d="M19 22C19 20.3431 17.2091 19 15 19C12.7909 19 11 20.3431 11 22" stroke="#47474A" stroke-width="2" stroke-linecap="round" stroke-linejoin="round"/>
    <path d="M27 22C27 20.3431 25.2091 19 23 19C20.7909 19 19 20.3431 19 22" stroke="#47474A" stroke-width="2" stroke-linecap="round" stroke-linejoin="round"/>
    <path d="M7 13L7 12" stroke="#47474A" stroke-width="2" stroke-linecap="round" stroke-linejoin="round"/>
    <path d="M9 7.57143C9 8.36041 8.10457 9 7 9C5.89543 9 5 8.36041 5 7.57143C5 6.78245 7 4 7 4C7 4 9 6.78245 9 7.57143Z" stroke="#47474A" stroke-width="2" stroke-linecap="round" stroke-linejoin="round"/>
    <path d="M15 13L15 11" stroke="#47474A" stroke-width="2" stroke-linecap="round" stroke-linejoin="round"/>
    <path d="M17 6.57143C17 7.36041 16.1046 8 15 8C13.8954 8 13 7.36041 13 6.57143C13 5.78245 15 3 15 3C15 3 17 5.78245 17 6.57143Z" stroke="#47474A" stroke-width="2" stroke-linecap="round" stroke-linejoin="round"/>
    <path d="M23 13L23 12" stroke="#47474A" stroke-width="2" stroke-linecap="round" stroke-linejoin="round"/>
    <path d="M25 7.57143C25 8.36041 24.1046 9 23 9C21.8954 9 21 8.36041 21 7.57143C21 6.78245 23 4 23 4C23 4 25 6.78245 25 7.57143Z" stroke="#47474A" stroke-width="2" stroke-linecap="round" stroke-linejoin="round"/>
</svg>
