<svg width="30" height="30" viewBox="0 0 30 30" fill="none" xmlns="http://www.w3.org/2000/svg">
    <path fill-rule="evenodd" clip-rule="evenodd" d="M10 14C10 10.6863 12.6863 8 16 8C19.3137 8 22 10.6863 22 14C22 14.5232 21.933 15.0308 21.8072 15.5146C21.6871 15.9763 21.8221 16.4827 22.2089 16.762C22.7285 17.1372 23.4657 16.9516 23.6528 16.3386C23.8785 15.5989 24 14.8136 24 14C24 9.58172 20.4183 6 16 6C11.5817 6 8 9.58172 8 14C8 17.8189 10.6759 21.0128 14.255 21.8091C14.7488 21.919 15.2133 21.5762 15.3165 21.0809C15.4377 20.4992 15.0149 19.9495 14.441 19.7955C11.8832 19.1091 10 16.7745 10 14Z" fill="#47474A"/>
    <path fill-rule="evenodd" clip-rule="evenodd" d="M6.57841 14.2079C6.07198 13.9878 5.47627 14.2186 5.32114 14.7486C5.11211 15.4627 5 16.2182 5 16.9999C5 21.4182 8.58172 24.9999 13 24.9999C17.4183 24.9999 21 21.4182 21 16.9999C21 13.05 18.1374 9.76874 14.3737 9.11742C13.8298 9.0233 13.3593 9.45556 13.333 10.0069C13.3067 10.5589 13.7369 11.0191 14.277 11.1361C16.9772 11.7214 19 14.1244 19 16.9999C19 20.3136 16.3137 22.9999 13 22.9999C9.68629 22.9999 7 20.3136 7 16.9999C7 16.5013 7.06082 16.0169 7.17546 15.5537C7.30821 15.0173 7.08521 14.4283 6.57841 14.2079Z" fill="#47474A"/>
    <path d="M21 9L28 2" stroke="#47474A" stroke-width="2" stroke-linecap="round" stroke-linejoin="round"/>
    <path d="M21 2H28V9" stroke="#47474A" stroke-width="2" stroke-linecap="round" stroke-linejoin="round"/>
    <path d="M8 22L2 28" stroke="#47474A" stroke-width="2" stroke-linecap="round" stroke-linejoin="round"/>
    <path d="M6.94971 27.9497L1.99996 23" stroke="#47474A" stroke-width="2" stroke-linecap="round" stroke-linejoin="round"/>
</svg>
