<svg width="158" height="158" viewBox="0 0 158 158" fill="none" xmlns="http://www.w3.org/2000/svg">
    <rect x="4" y="4" width="150" height="150" rx="30" stroke="#23A67E" stroke-width="7" stroke-linecap="round" stroke-linejoin="round"/>
    <path d="M125.743 102.251V116.325C125.748 117.632 125.48 118.925 124.956 120.122C124.431 121.319 123.662 122.394 122.697 123.277C121.733 124.16 120.594 124.833 119.353 125.251C118.113 125.67 116.799 125.825 115.495 125.708C101.03 124.139 87.1357 119.206 74.9279 111.305C63.5701 104.102 53.9407 94.4919 46.7235 83.1566C38.7791 70.9176 33.8352 56.9831 32.2922 42.4819C32.1747 41.1846 32.3292 39.8771 32.7458 38.6426C33.1624 37.4081 33.832 36.2737 34.712 35.3116C35.5919 34.3496 36.663 33.5809 37.8569 33.0546C39.0508 32.5283 40.3415 32.2558 41.6467 32.2546H55.7489C58.0302 32.2322 60.2418 33.0384 61.9716 34.5231C63.7013 36.0077 64.8311 38.0694 65.1504 40.3239C65.7456 44.8279 66.8495 49.2504 68.4409 53.5068C69.0734 55.1859 69.2102 57.0109 68.8353 58.7653C68.4604 60.5197 67.5894 62.1301 66.3256 63.4057L60.3556 69.3638C67.0474 81.109 76.7916 90.8339 88.5601 97.5124L94.53 91.5543C95.8081 90.2929 97.4217 89.4236 99.1796 89.0495C100.938 88.6753 102.766 88.8119 104.449 89.4431C108.713 91.0314 113.145 92.1331 117.658 92.7271C119.941 93.0486 122.027 94.1965 123.517 95.9524C125.008 97.7084 125.8 99.9499 125.743 102.251Z" stroke="#23A67E" stroke-width="7" stroke-linecap="round" stroke-linejoin="round"/>
</svg>
